<svg width="645" height="413" viewBox="0 0 645 413" fill="none" xmlns="http://www.w3.org/2000/svg">
<g clipPath="url(#clip0_3_110)">
<path d="M97.1066 112.705C98.1824 101.118 101.154 89.7868 105.902 79.1631C107.226 76.2066 108.682 73.3153 110.272 70.489C110.352 70.3412 110.371 70.1682 110.326 70.0065C110.28 69.8448 110.174 69.7071 110.029 69.6223C109.884 69.5376 109.712 69.5125 109.549 69.5523C109.386 69.5921 109.244 69.6937 109.155 69.8356C103.373 80.1296 99.3225 91.3039 97.1652 102.912C96.5651 106.153 96.1141 109.418 95.8121 112.705C95.7354 113.534 97.0303 113.529 97.1066 112.705Z" fill="#E6E6E6"/>
<path d="M113.408 72.5648C117.936 72.5648 121.606 68.8943 121.606 64.3665C121.606 59.8387 117.936 56.1682 113.408 56.1682C108.88 56.1682 105.209 59.8387 105.209 64.3665C105.209 68.8943 108.88 72.5648 113.408 72.5648Z" fill="#E6E6E6"/>
<path d="M97.9454 112.923C98.6434 105.406 100.571 98.0546 103.652 91.1625C104.51 89.2445 105.455 87.3687 106.487 85.5352C106.538 85.4393 106.551 85.3271 106.521 85.2222C106.492 85.1173 106.423 85.0279 106.329 84.973C106.235 84.918 106.123 84.9017 106.017 84.9275C105.911 84.9533 105.82 85.0192 105.762 85.1113C102.011 91.7895 99.383 99.0388 97.9834 106.569C97.5941 108.672 97.3015 110.79 97.1056 112.923C97.0559 113.461 97.896 113.457 97.9454 112.923Z" fill="#E6E6E6"/>
<path d="M108.521 86.8821C111.458 86.8821 113.84 84.5009 113.84 81.5635C113.84 78.6261 111.458 76.2449 108.521 76.2449C105.584 76.2449 103.202 78.6261 103.202 81.5635C103.202 84.5009 105.584 86.8821 108.521 86.8821Z" fill="#E6E6E6"/>
<path d="M96.8853 112.421C92.8123 106.064 89.8109 99.0824 88.0008 91.7534C87.4981 89.713 87.0894 87.6528 86.7749 85.5727C86.7568 85.4653 86.6976 85.3691 86.6098 85.3045C86.5221 85.2399 86.4127 85.2119 86.3047 85.2264C86.1967 85.2409 86.0986 85.2968 86.031 85.3822C85.9635 85.4677 85.9317 85.5761 85.9425 85.6845C87.0925 93.2571 89.4794 100.589 93.0076 107.388C93.994 109.285 95.0659 111.135 96.2231 112.937C96.5147 113.392 97.175 112.872 96.8853 112.421Z" fill="#E6E6E6"/>
<path d="M85.9356 86.5085C88.873 86.5085 91.2542 84.1272 91.2542 81.1898C91.2542 78.2524 88.873 75.8712 85.9356 75.8712C82.9982 75.8712 80.6169 78.2524 80.6169 81.1898C80.6169 84.1272 82.9982 86.5085 85.9356 86.5085Z" fill="#E6E6E6"/>
<path d="M80.5571 117.126V106.676C80.5583 105.637 80.9716 104.641 81.7062 103.907C82.4409 103.172 83.4369 102.759 84.4758 102.758H108.859C109.898 102.759 110.894 103.172 111.629 103.907C112.363 104.641 112.777 105.637 112.778 106.676V117.126C112.777 118.165 112.363 119.161 111.629 119.896C110.894 120.631 109.898 121.044 108.859 121.045H84.4758C83.4369 121.044 82.4409 120.631 81.7062 119.896C80.9716 119.161 80.5583 118.165 80.5571 117.126Z" fill="#F2F2F2"/>
<path d="M107.989 50.508H97.5388C96.4999 50.5068 95.5038 50.0935 94.7692 49.3589C94.0345 48.6242 93.6213 47.6282 93.6201 46.5892V3.91872C93.6213 2.87977 94.0345 1.88371 94.7692 1.14906C95.5038 0.41441 96.4999 0.00117088 97.5388 0H107.989C109.028 0.00117088 110.024 0.41441 110.758 1.14906C111.493 1.88371 111.906 2.87977 111.907 3.91872V46.5892C111.906 47.6282 111.493 48.6242 110.758 49.3589C110.024 50.0935 109.028 50.5068 107.989 50.508Z" fill="#F2F2F2"/>
<path d="M111.472 8.27283H94.0552V11.7561H111.472V8.27283Z" fill="#CCCCCC"/>
<path d="M111.472 35.2686H94.0552V38.7519H111.472V35.2686Z" fill="#CCCCCC"/>
<path d="M134.113 50.508H123.663C122.624 50.5068 121.628 50.0935 120.893 49.3589C120.159 48.6242 119.746 47.6282 119.744 46.5892V3.91872C119.746 2.87977 120.159 1.88371 120.893 1.14906C121.628 0.41441 122.624 0.00117088 123.663 0H134.113C135.152 0.00117088 136.148 0.41441 136.883 1.14906C137.617 1.88371 138.031 2.87977 138.032 3.91872V46.5892C138.031 47.6282 137.617 48.6242 136.883 49.3589C136.148 50.0935 135.152 50.5068 134.113 50.508Z" fill="#F2F2F2"/>
<path d="M137.597 8.27283H120.18V11.7561H137.597V8.27283Z" fill="#CCCCCC"/>
<path d="M137.597 35.2686H120.18V38.7519H137.597V35.2686Z" fill="#CCCCCC"/>
<path d="M160.238 50.508H149.788C148.749 50.5068 147.753 50.0935 147.018 49.3589C146.284 48.6242 145.87 47.6282 145.869 46.5892V3.91872C145.87 2.87977 146.284 1.88371 147.018 1.14906C147.753 0.41441 148.749 0.00117088 149.788 0H160.238C161.277 0.00117088 162.273 0.41441 163.007 1.14906C163.742 1.88371 164.155 2.87977 164.157 3.91872V46.5892C164.155 47.6282 163.742 48.6242 163.007 49.3589C162.273 50.0935 161.277 50.5068 160.238 50.508Z" fill="#F2F2F2"/>
<path d="M163.721 8.27283H146.305V11.7561H163.721V8.27283Z" fill="#CCCCCC"/>
<path d="M163.721 35.2686H146.305V38.7519H163.721V35.2686Z" fill="#CCCCCC"/>
<path d="M174.171 121.045H163.721C162.682 121.044 161.686 120.631 160.951 119.896C160.217 119.161 159.803 118.165 159.802 117.126V74.4557C159.803 73.4168 160.217 72.4207 160.951 71.686C161.686 70.9514 162.682 70.5382 163.721 70.537H174.171C175.21 70.5382 176.206 70.9514 176.941 71.686C177.675 72.4207 178.088 73.4168 178.09 74.4557V117.126C178.088 118.165 177.675 119.161 176.941 119.896C176.206 120.631 175.21 121.044 174.171 121.045Z" fill="#F2F2F2"/>
<path d="M177.655 78.8098H160.238V82.2931H177.655V78.8098Z" fill="#CCCCCC"/>
<path d="M177.655 105.806H160.238V109.289H177.655V105.806Z" fill="#CCCCCC"/>
<path d="M200.296 121.045H189.846C188.808 121.044 187.811 120.631 187.077 119.896C186.342 119.161 185.929 118.165 185.928 117.126V74.4557C185.929 73.4168 186.342 72.4207 187.077 71.686C187.811 70.9514 188.808 70.5382 189.846 70.537H200.296C201.335 70.5382 202.331 70.9514 203.066 71.686C203.801 72.4207 204.214 73.4168 204.215 74.4557V117.126C204.214 118.165 203.801 119.161 203.066 119.896C202.331 120.631 201.335 121.044 200.296 121.045Z" fill="#F2F2F2"/>
<path d="M203.779 78.8098H186.363V82.2931H203.779V78.8098Z" fill="#CCCCCC"/>
<path d="M203.779 105.806H186.363V109.289H203.779V105.806Z" fill="#CCCCCC"/>
<path d="M226.421 121.045H215.971C214.932 121.044 213.936 120.631 213.202 119.896C212.467 119.161 212.054 118.165 212.052 117.126V74.4557C212.054 73.4168 212.467 72.4207 213.202 71.686C213.936 70.9514 214.932 70.5382 215.971 70.537H226.421C227.46 70.5382 228.456 70.9514 229.191 71.686C229.925 72.4207 230.339 73.4168 230.34 74.4557V117.126C230.339 118.165 229.925 119.161 229.191 119.896C228.456 120.631 227.46 121.044 226.421 121.045Z" fill="#F2F2F2"/>
<path d="M229.905 78.8098H212.488V82.2931H229.905V78.8098Z" fill="#CCCCCC"/>
<path d="M229.905 105.806H212.488V109.289H229.905V105.806Z" fill="#CCCCCC"/>
<path d="M105.376 191.582H94.9263C93.8873 191.581 92.8913 191.168 92.1566 190.433C91.422 189.698 91.0087 188.702 91.0076 187.663V144.993C91.0087 143.954 91.422 142.958 92.1566 142.223C92.8913 141.488 93.8873 141.075 94.9263 141.074H105.376C106.415 141.075 107.411 141.488 108.146 142.223C108.881 142.958 109.294 143.954 109.295 144.993V187.663C109.294 188.702 108.881 189.698 108.146 190.433C107.411 191.168 106.415 191.581 105.376 191.582Z" fill="#F2F2F2"/>
<path d="M108.86 149.347H91.4431V152.83H108.86V149.347Z" fill="#CCCCCC"/>
<path d="M108.86 176.342H91.4431V179.826H108.86V176.342Z" fill="#CCCCCC"/>
<path d="M131.501 191.582H121.051C120.012 191.581 119.016 191.168 118.281 190.433C117.547 189.698 117.133 188.702 117.132 187.663V144.993C117.133 143.954 117.547 142.958 118.281 142.223C119.016 141.488 120.012 141.075 121.051 141.074H131.501C132.54 141.075 133.536 141.488 134.271 142.223C135.005 142.958 135.419 143.954 135.42 144.993V187.663C135.419 188.702 135.005 189.698 134.271 190.433C133.536 191.168 132.54 191.581 131.501 191.582Z" fill="#F2F2F2"/>
<path d="M134.984 149.347H117.568V152.83H134.984V149.347Z" fill="#CCCCCC"/>
<path d="M134.984 176.342H117.568V179.826H134.984V176.342Z" fill="#CCCCCC"/>
<path d="M157.626 191.582H147.176C146.137 191.581 145.141 191.168 144.406 190.433C143.672 189.698 143.258 188.702 143.257 187.663V144.993C143.258 143.954 143.672 142.958 144.406 142.223C145.141 141.488 146.137 141.075 147.176 141.074H157.626C158.665 141.075 159.661 141.488 160.395 142.223C161.13 142.958 161.543 143.954 161.544 144.993V187.663C161.543 188.702 161.13 189.698 160.395 190.433C159.661 191.168 158.665 191.581 157.626 191.582Z" fill="#F2F2F2"/>
<path d="M161.109 149.347H143.692V152.83H161.109V149.347Z" fill="#CCCCCC"/>
<path d="M161.109 176.342H143.692V179.826H161.109V176.342Z" fill="#CCCCCC"/>
<path d="M186.363 50.508H175.913C174.874 50.5068 173.878 50.0935 173.144 49.3589C172.409 48.6242 171.996 47.6282 171.995 46.5892V3.91872C171.996 2.87977 172.409 1.88371 173.144 1.14906C173.878 0.41441 174.874 0.00117088 175.913 0H186.363C187.402 0.00117088 188.398 0.41441 189.133 1.14906C189.868 1.88371 190.281 2.87977 190.282 3.91872V46.5892C190.281 47.6282 189.868 48.6242 189.133 49.3589C188.398 50.0935 187.402 50.5068 186.363 50.508Z" fill="#F2F2F2"/>
<path d="M189.846 8.27283H172.43V11.7561H189.846V8.27283Z" fill="#CCCCCC"/>
<path d="M189.846 35.2686H172.43V38.7519H189.846V35.2686Z" fill="#CCCCCC"/>
<path d="M212.488 50.508H202.038C200.999 50.5068 200.003 50.0935 199.268 49.3589C198.533 48.6242 198.12 47.6282 198.119 46.5892V3.91872C198.12 2.87977 198.533 1.88371 199.268 1.14906C200.003 0.41441 200.999 0.00117088 202.038 0H212.488C213.526 0.00117088 214.523 0.41441 215.257 1.14906C215.992 1.88371 216.405 2.87977 216.406 3.91872V46.5892C216.405 47.6282 215.992 48.6242 215.257 49.3589C214.523 50.0935 213.526 50.5068 212.488 50.508Z" fill="#F2F2F2"/>
<path d="M215.971 8.27283H198.554V11.7561H215.971V8.27283Z" fill="#CCCCCC"/>
<path d="M215.971 35.2686H198.554V38.7519H215.971V35.2686Z" fill="#CCCCCC"/>
<path d="M238.613 50.508H228.163C227.124 50.5068 226.128 50.0935 225.393 49.3589C224.659 48.6242 224.245 47.6282 224.244 46.5892V3.91872C224.245 2.87977 224.659 1.88371 225.393 1.14906C226.128 0.41441 227.124 0.00117088 228.163 0H238.613C239.652 0.00117088 240.648 0.41441 241.382 1.14906C242.117 1.88371 242.53 2.87977 242.532 3.91872V46.5892C242.53 47.6282 242.117 48.6242 241.382 49.3589C240.648 50.0935 239.652 50.5068 238.613 50.508Z" fill="#F2F2F2"/>
<path d="M242.096 8.27283H224.679V11.7561H242.096V8.27283Z" fill="#CCCCCC"/>
<path d="M242.096 35.2686H224.679V38.7519H242.096V35.2686Z" fill="#CCCCCC"/>
<path d="M264.738 50.508H254.288C253.249 50.5068 252.253 50.0935 251.518 49.3589C250.784 48.6242 250.37 47.6282 250.369 46.5892V3.91872C250.37 2.87977 250.784 1.88371 251.518 1.14906C252.253 0.41441 253.249 0.00117088 254.288 0H264.738C265.777 0.00117088 266.773 0.41441 267.507 1.14906C268.242 1.88371 268.655 2.87977 268.657 3.91872V46.5892C268.655 47.6282 268.242 48.6242 267.507 49.3589C266.773 50.0935 265.777 50.5068 264.738 50.508Z" fill="#F2F2F2"/>
<path d="M268.221 8.27283H250.804V11.7561H268.221V8.27283Z" fill="#CCCCCC"/>
<path d="M268.221 35.2686H250.804V38.7519H268.221V35.2686Z" fill="#CCCCCC"/>
<path d="M303.873 51.8142H55.6875C55.4565 51.8142 55.235 51.7224 55.0717 51.5591C54.9084 51.3958 54.8167 51.1743 54.8167 50.9433C54.8167 50.7124 54.9084 50.4909 55.0717 50.3276C55.235 50.1642 55.4565 50.0725 55.6875 50.0725H303.873C304.104 50.0725 304.326 50.1642 304.489 50.3276C304.652 50.4909 304.744 50.7124 304.744 50.9433C304.744 51.1743 304.652 51.3958 304.489 51.5591C304.326 51.7224 304.104 51.8142 303.873 51.8142Z" fill="#CCCCCC"/>
<path d="M303.873 122.351H55.6875C55.4565 122.351 55.235 122.259 55.0717 122.096C54.9084 121.933 54.8167 121.711 54.8167 121.48C54.8167 121.249 54.9084 121.028 55.0717 120.865C55.235 120.701 55.4565 120.609 55.6875 120.609H303.873C304.104 120.609 304.326 120.701 304.489 120.865C304.652 121.028 304.744 121.249 304.744 121.48C304.744 121.711 304.652 121.933 304.489 122.096C304.326 122.259 304.104 122.351 303.873 122.351Z" fill="#CCCCCC"/>
<path d="M303.873 192.888H55.6875C55.4565 192.888 55.235 192.796 55.0717 192.633C54.9084 192.47 54.8167 192.248 54.8167 192.017C54.8167 191.786 54.9084 191.565 55.0717 191.401C55.235 191.238 55.4565 191.146 55.6875 191.146H303.873C304.104 191.146 304.326 191.238 304.489 191.401C304.652 191.565 304.744 191.786 304.744 192.017C304.744 192.248 304.652 192.47 304.489 192.633C304.326 192.796 304.104 192.888 303.873 192.888Z" fill="#CCCCCC"/>
<path d="M289.175 329.592C289.175 322.859 263.833 317.401 232.571 317.401C201.31 317.401 175.968 322.859 175.968 329.592C175.968 333.908 186.386 337.697 202.092 339.863V406.661C202.092 408.162 202.689 409.602 203.75 410.663C204.812 411.725 206.251 412.321 207.753 412.321C209.254 412.321 210.694 411.725 211.755 410.663C212.817 409.602 213.413 408.162 213.413 406.661V341.066C219.397 341.53 225.846 341.784 232.571 341.784C239.297 341.784 245.745 341.53 251.729 341.066V406.661C251.729 408.162 252.326 409.602 253.387 410.663C254.449 411.725 255.889 412.321 257.39 412.321C258.891 412.321 260.331 411.725 261.392 410.663C262.454 409.602 263.05 408.162 263.05 406.661V339.863C278.756 337.697 289.175 333.908 289.175 329.592Z" fill="#CCCCCC"/>
<path d="M278.284 401.369H288.96L294.039 360.19H278.282L278.284 401.369Z" fill="#A0616A"/>
<path d="M309.55 411.281L275.997 411.283L275.996 398.319L296.586 398.318C300.024 398.318 303.322 399.684 305.753 402.115C308.184 404.546 309.55 407.843 309.55 411.281Z" fill="#2F2E41"/>
<path d="M294.95 395.411L305.136 392.214L297.654 351.403L282.62 356.12L294.95 395.411Z" fill="#A0616A"/>
<path d="M327.749 395.508L295.735 405.554L291.853 393.185L311.499 387.02C314.779 385.991 318.334 386.307 321.382 387.898C324.429 389.49 326.72 392.227 327.749 395.508Z" fill="#2F2E41"/>
<path d="M287.807 376.457L268.277 325.191C263.895 326.22 227.151 334.351 214.844 321.247C210.626 316.756 209.804 310.25 212.399 301.908L219.581 292.883L219.804 292.894C222.52 293.037 286.366 296.616 290.743 315.874C294.433 332.111 301.172 362.381 303.15 371.272C303.35 372.194 303.213 373.156 302.763 373.985C302.314 374.813 301.581 375.453 300.699 375.786L292.845 378.731C292.408 378.896 291.944 378.98 291.476 378.98C290.681 378.98 289.905 378.739 289.25 378.289C288.595 377.838 288.092 377.2 287.807 376.457Z" fill="#2F2E41"/>
<path d="M276.487 382.553L256.957 331.287C252.575 332.316 215.83 340.446 203.524 327.343C199.306 322.852 198.483 316.346 201.079 308.004L208.261 298.978L208.484 298.99C211.2 299.133 275.046 302.712 279.423 321.97C283.113 338.206 289.852 368.477 291.83 377.368C292.03 378.289 291.893 379.252 291.443 380.08C290.993 380.909 290.261 381.548 289.379 381.882L281.525 384.827C281.087 384.992 280.623 385.076 280.156 385.076C279.361 385.076 278.585 384.835 277.929 384.384C277.274 383.934 276.771 383.295 276.487 382.553Z" fill="#2F2E41"/>
<path d="M302.88 259.66C302.591 260.046 302.333 260.454 302.109 260.88L259.16 265.405L252.977 256.929L238.965 264.587L251.108 285.157L303.782 271.727C305.111 273.022 306.803 273.883 308.633 274.193C310.463 274.504 312.344 274.25 314.026 273.466C315.708 272.681 317.111 271.404 318.049 269.802C318.987 268.201 319.416 266.351 319.277 264.501C319.139 262.65 318.44 260.885 317.274 259.441C316.108 257.997 314.53 256.942 312.75 256.416C310.97 255.891 309.072 255.92 307.309 256.499C305.546 257.079 304.001 258.181 302.88 259.66Z" fill="#A0616A"/>
<path d="M200.802 310.711C200.214 310.287 199.755 309.709 199.475 309.041C199.196 308.372 199.107 307.64 199.218 306.924C201.641 290.95 198.853 268.068 196.088 251.685C195.522 248.361 195.742 244.95 196.731 241.727C197.72 238.503 199.45 235.556 201.783 233.121C204.116 230.686 206.987 228.832 210.165 227.706C213.344 226.58 216.742 226.215 220.087 226.639C222.998 227.023 225.881 227.591 228.72 228.34C233.435 229.528 237.606 232.284 240.546 236.156C243.487 240.029 245.023 244.786 244.901 249.647C244.488 265.457 247.698 285.182 249.097 292.929C249.193 293.461 249.177 294.007 249.053 294.533C248.928 295.059 248.696 295.553 248.371 295.986C248.053 296.414 247.649 296.77 247.184 297.033C246.72 297.295 246.206 297.458 245.676 297.51C230.168 299.092 213.444 306.655 204.856 311.022C204.304 311.307 203.692 311.456 203.071 311.458C202.255 311.456 201.46 311.194 200.802 310.711Z" fill="#8C28BB"/>
<path d="M242.664 269.51C242.184 269.322 241.747 269.041 241.377 268.682C241.008 268.324 240.713 267.896 240.509 267.423L231.861 247.444C231.337 246.237 231.057 244.938 231.035 243.623C231.013 242.307 231.251 241 231.735 239.776C232.219 238.553 232.939 237.437 233.854 236.491C234.77 235.546 235.863 234.791 237.07 234.268C238.278 233.745 239.576 233.466 240.892 233.445C242.208 233.425 243.514 233.664 244.738 234.149C245.961 234.633 247.077 235.354 248.021 236.271C248.965 237.187 249.72 238.28 250.242 239.488L258.89 259.467C259.302 260.421 259.318 261.499 258.936 262.465C258.553 263.431 257.804 264.206 256.851 264.62L245.663 269.463C245.191 269.669 244.683 269.779 244.168 269.787C243.653 269.795 243.142 269.701 242.664 269.51Z" fill="#8C28BB"/>
<path d="M261.95 257.918C261.662 258.304 261.404 258.712 261.18 259.139L218.23 263.664L212.048 255.187L198.036 262.845L210.179 283.415L262.853 269.985C264.182 271.281 265.874 272.141 267.704 272.452C269.533 272.762 271.414 272.509 273.096 271.724C274.778 270.94 276.182 269.662 277.12 268.06C278.058 266.459 278.486 264.61 278.348 262.759C278.209 260.908 277.511 259.143 276.345 257.699C275.179 256.255 273.601 255.2 271.821 254.675C270.041 254.149 268.143 254.178 266.38 254.757C264.617 255.337 263.072 256.439 261.95 257.918Z" fill="#A0616A"/>
<path d="M201.734 270.381C201.255 270.193 200.818 269.912 200.448 269.553C200.078 269.195 199.783 268.767 199.58 268.294L190.932 248.315C190.408 247.108 190.127 245.809 190.106 244.494C190.084 243.178 190.322 241.871 190.806 240.647C191.29 239.424 192.01 238.307 192.925 237.362C193.841 236.417 194.933 235.662 196.141 235.139C197.348 234.616 198.647 234.337 199.963 234.316C201.278 234.296 202.585 234.535 203.808 235.019C205.032 235.504 206.147 236.225 207.092 237.142C208.036 238.058 208.791 239.151 209.312 240.359L217.961 260.338C218.373 261.292 218.389 262.37 218.007 263.336C217.624 264.302 216.875 265.077 215.922 265.491L204.733 270.334C204.262 270.54 203.753 270.65 203.239 270.658C202.724 270.666 202.213 270.572 201.734 270.381Z" fill="#8C28BB"/>
<path d="M218.496 219.842C230.308 219.842 239.884 210.266 239.884 198.453C239.884 186.641 230.308 177.065 218.496 177.065C206.683 177.065 197.107 186.641 197.107 198.453C197.107 210.266 206.683 219.842 218.496 219.842Z" fill="#A0616A"/>
<path d="M203.203 213.133C203.112 212.864 203.083 212.578 203.118 212.297C203.154 212.015 203.254 211.746 203.41 211.509C203.566 211.272 203.774 211.074 204.019 210.93C204.263 210.786 204.537 210.7 204.82 210.678C205.399 210.709 205.966 210.858 206.486 211.115C207.007 211.371 207.47 211.731 207.847 212.171C208.621 213.064 209.522 213.837 210.521 214.468C211.556 214.989 212.959 214.915 213.549 213.921C214.103 212.987 213.724 211.737 213.388 210.652C212.535 207.893 212.058 205.031 211.969 202.144C211.872 198.922 212.327 195.559 214.111 193.046C216.413 189.802 220.53 188.571 224.426 188.66C228.322 188.749 232.155 189.952 236.014 190.712C237.347 190.975 238.913 191.109 239.804 190.076C240.751 188.978 240.403 187.201 240 185.719C238.955 181.872 237.845 177.895 235.415 174.788C232.788 171.56 229.035 169.447 224.912 168.875C220.954 168.385 216.936 168.841 213.189 170.206C207.083 172.13 201.711 175.873 197.79 180.933C193.748 186.315 192.002 193.078 192.933 199.743C193.842 205.549 196.918 210.794 201.542 214.421L203.203 213.133Z" fill="#2F2E41"/>
<path d="M121.537 264.624C122.613 253.037 125.585 241.705 130.333 231.082C131.657 228.125 133.113 225.234 134.703 222.408C134.783 222.26 134.802 222.087 134.757 221.925C134.711 221.764 134.605 221.626 134.46 221.541C134.315 221.456 134.143 221.431 133.98 221.471C133.816 221.511 133.675 221.612 133.585 221.754C127.804 232.048 123.753 243.223 121.596 254.83C120.996 258.072 120.545 261.336 120.243 264.624C120.166 265.453 121.461 265.448 121.537 264.624Z" fill="#3F3D56"/>
<path d="M137.839 224.484C142.366 224.484 146.037 220.813 146.037 216.285C146.037 211.758 142.366 208.087 137.839 208.087C133.311 208.087 129.64 211.758 129.64 216.285C129.64 220.813 133.311 224.484 137.839 224.484Z" fill="#8C28BB"/>
<path d="M122.377 264.841C123.075 257.324 125.002 249.973 128.083 243.081C128.941 241.163 129.886 239.287 130.918 237.454C130.97 237.358 130.982 237.246 130.953 237.141C130.923 237.036 130.854 236.947 130.76 236.892C130.666 236.837 130.554 236.82 130.448 236.846C130.343 236.872 130.251 236.938 130.193 237.03C126.442 243.708 123.814 250.958 122.415 258.488C122.025 260.591 121.733 262.709 121.537 264.841C121.487 265.379 122.327 265.376 122.377 264.841Z" fill="#3F3D56"/>
<path d="M132.952 238.801C135.889 238.801 138.271 236.42 138.271 233.482C138.271 230.545 135.889 228.164 132.952 228.164C130.015 228.164 127.633 230.545 127.633 233.482C127.633 236.42 130.015 238.801 132.952 238.801Z" fill="#8C28BB"/>
<path d="M121.317 264.339C117.244 257.983 114.242 251.001 112.432 243.672C111.929 241.632 111.521 239.572 111.206 237.491C111.188 237.384 111.129 237.288 111.041 237.223C110.953 237.159 110.844 237.131 110.736 237.145C110.628 237.16 110.53 237.216 110.462 237.301C110.395 237.387 110.363 237.495 110.374 237.603C111.524 245.176 113.911 252.508 117.439 259.306C118.425 261.204 119.497 263.054 120.655 264.856C120.946 265.311 121.606 264.791 121.317 264.339Z" fill="#3F3D56"/>
<path d="M110.367 238.428C113.305 238.428 115.686 236.046 115.686 233.109C115.686 230.171 113.305 227.79 110.367 227.79C107.43 227.79 105.049 230.171 105.049 233.109C105.049 236.046 107.43 238.428 110.367 238.428Z" fill="#8C28BB"/>
<path d="M104.989 269.045V258.595C104.99 257.556 105.403 256.56 106.138 255.825C106.872 255.091 107.869 254.678 108.907 254.676H133.291C134.33 254.678 135.326 255.091 136.06 255.825C136.795 256.56 137.208 257.556 137.209 258.595V269.045C137.208 270.084 136.795 271.08 136.06 271.815C135.326 272.549 134.33 272.963 133.291 272.964H108.907C107.869 272.963 106.872 272.549 106.138 271.815C105.403 271.08 104.99 270.084 104.989 269.045Z" fill="#CCCCCC"/>
<path d="M323.573 266.022H254.778C253.094 266.022 251.73 267.387 251.73 269.07C251.73 270.753 253.094 272.118 254.778 272.118H323.573C325.256 272.118 326.621 270.753 326.621 269.07C326.621 267.387 325.256 266.022 323.573 266.022Z" fill="#CCCCCC"/>
<path d="M369.727 272.118H292.223C290.722 272.116 289.284 271.519 288.222 270.458C287.161 269.397 286.564 267.958 286.563 266.458V223.787C286.564 222.286 287.161 220.848 288.222 219.786C289.284 218.725 290.722 218.128 292.223 218.127H369.727C371.227 218.128 372.666 218.725 373.727 219.786C374.788 220.848 375.385 222.286 375.387 223.787V266.458C375.385 267.958 374.788 269.397 373.727 270.458C372.666 271.519 371.227 272.116 369.727 272.118Z" fill="#CCCCCC"/>
<path d="M330.975 250.347C333.861 250.347 336.2 248.008 336.2 245.122C336.2 242.237 333.861 239.897 330.975 239.897C328.09 239.897 325.75 242.237 325.75 245.122C325.75 248.008 328.09 250.347 330.975 250.347Z" fill="white"/>
<path d="M566.969 329.592C566.969 322.859 541.627 317.401 510.365 317.401C479.104 317.401 453.762 322.859 453.762 329.592C453.762 333.908 464.181 337.697 479.887 339.863V406.661C479.887 408.162 480.483 409.602 481.544 410.663C482.606 411.725 484.046 412.321 485.547 412.321C487.048 412.321 488.488 411.725 489.549 410.663C490.611 409.602 491.207 408.162 491.207 406.661V341.066C497.192 341.53 503.64 341.784 510.365 341.784C517.091 341.784 523.539 341.53 529.524 341.066V406.661C529.524 408.162 530.12 409.602 531.182 410.663C532.243 411.725 533.683 412.321 535.184 412.321C536.685 412.321 538.125 411.725 539.187 410.663C540.248 409.602 540.844 408.162 540.844 406.661V339.863C556.55 337.697 566.969 333.908 566.969 329.592Z" fill="#CCCCCC"/>
<path d="M516.624 218.003C530.091 218.003 541.008 207.086 541.008 193.619C541.008 180.153 530.091 169.236 516.624 169.236C503.158 169.236 492.241 180.153 492.241 193.619C492.241 207.086 503.158 218.003 516.624 218.003Z" fill="#2F2E41"/>
<path d="M455.945 402.24H445.269L440.19 361.06H455.947L455.945 402.24Z" fill="#FFB8B8"/>
<path d="M437.643 399.189H458.232V412.153H424.679C424.679 410.451 425.014 408.765 425.666 407.192C426.317 405.619 427.272 404.19 428.476 402.986C429.68 401.782 431.109 400.828 432.682 400.176C434.254 399.525 435.94 399.189 437.643 399.189Z" fill="#2F2E41"/>
<path d="M439.279 396.282L429.093 393.085L436.575 352.274L451.609 356.991L439.279 396.282Z" fill="#FFB8B8"/>
<path d="M422.73 387.891L442.376 394.056L438.494 406.425L406.48 396.379C406.989 394.754 407.814 393.246 408.907 391.941C409.999 390.635 411.338 389.557 412.847 388.769C414.356 387.981 416.006 387.498 417.702 387.347C419.397 387.197 421.106 387.382 422.73 387.891Z" fill="#2F2E41"/>
<path d="M442.753 379.851C442.285 379.851 441.821 379.767 441.384 379.602L433.529 376.657C432.648 376.323 431.915 375.684 431.465 374.855C431.016 374.027 430.878 373.064 431.079 372.143C433.056 363.252 439.796 332.981 443.486 316.745C447.863 297.487 511.709 293.908 514.424 293.765L514.648 293.753L521.83 302.779C524.425 311.121 523.603 317.627 519.385 322.118C507.078 335.221 470.334 327.091 465.952 326.062L446.422 377.328C446.137 378.07 445.634 378.709 444.979 379.16C444.324 379.61 443.548 379.851 442.753 379.851Z" fill="#2F2E41"/>
<path d="M454.073 385.947C453.606 385.947 453.142 385.863 452.704 385.698L444.85 382.753C443.968 382.419 443.236 381.78 442.786 380.951C442.336 380.123 442.199 379.16 442.4 378.239C444.377 369.348 451.116 339.077 454.806 322.841C459.183 303.582 523.029 300.004 525.745 299.861L525.968 299.849L533.151 308.875C535.746 317.216 534.923 323.723 530.706 328.214C518.399 341.316 481.654 333.186 477.273 332.157L457.742 383.424C457.458 384.166 456.955 384.805 456.3 385.255C455.645 385.706 454.868 385.947 454.073 385.947Z" fill="#2F2E41"/>
<path d="M431.35 260.531C431.638 260.917 431.896 261.325 432.12 261.751L475.069 266.276L481.252 257.8L495.264 265.458L483.121 286.028L430.447 272.598C429.118 273.893 427.426 274.754 425.596 275.064C423.767 275.375 421.886 275.121 420.203 274.337C418.521 273.552 417.118 272.274 416.18 270.673C415.242 269.071 414.814 267.222 414.952 265.372C415.09 263.521 415.789 261.756 416.955 260.312C418.121 258.868 419.699 257.813 421.479 257.287C423.259 256.762 425.157 256.791 426.92 257.37C428.683 257.949 430.228 259.052 431.35 260.531Z" fill="#FFB8B8"/>
<path d="M531.157 312.329C530.536 312.327 529.924 312.178 529.372 311.893C520.784 307.526 504.061 299.963 488.553 298.381C488.022 298.329 487.508 298.166 487.044 297.904C486.58 297.641 486.176 297.285 485.857 296.857C485.533 296.424 485.301 295.93 485.176 295.404C485.051 294.878 485.036 294.332 485.131 293.799C486.531 286.053 489.741 266.328 489.327 250.518C489.205 245.657 490.741 240.9 493.682 237.027C496.623 233.155 500.794 230.399 505.509 229.211C508.348 228.462 511.231 227.894 514.141 227.509C517.486 227.086 520.884 227.451 524.063 228.577C527.242 229.703 530.112 231.557 532.445 233.992C534.778 236.427 536.508 239.374 537.497 242.598C538.486 245.821 538.707 249.232 538.141 252.556C535.375 268.939 532.587 291.821 535.01 307.795C535.121 308.511 535.032 309.243 534.753 309.912C534.473 310.58 534.014 311.158 533.427 311.582C532.768 312.065 531.974 312.326 531.157 312.329Z" fill="#8C28BB"/>
<path d="M490.122 270.659C489.587 270.658 489.057 270.547 488.566 270.334L477.378 265.491C476.425 265.077 475.676 264.302 475.293 263.336C474.911 262.37 474.927 261.292 475.339 260.338L483.987 240.359C484.509 239.151 485.264 238.058 486.208 237.142C487.152 236.225 488.268 235.504 489.491 235.02C490.715 234.535 492.021 234.296 493.337 234.316C494.653 234.337 495.951 234.616 497.159 235.139C498.366 235.662 499.459 236.417 500.375 237.362C501.29 238.307 502.01 239.424 502.494 240.647C502.978 241.871 503.216 243.178 503.194 244.494C503.172 245.809 502.892 247.108 502.368 248.315L493.72 268.294C493.415 268.995 492.913 269.593 492.274 270.013C491.635 270.433 490.887 270.657 490.122 270.659Z" fill="#8C28BB"/>
<path d="M515.733 220.713C527.546 220.713 537.121 211.137 537.121 199.324C537.121 187.512 527.546 177.936 515.733 177.936C503.921 177.936 494.345 187.512 494.345 199.324C494.345 211.137 503.921 220.713 515.733 220.713Z" fill="#FFB8B8"/>
<path d="M493.959 188.816C504.091 195 515.512 198.764 527.335 199.813L523.817 195.598C526.378 196.545 529.074 197.08 531.803 197.184C534.529 197.141 537.385 196.092 538.932 193.847C539.622 192.731 540.032 191.465 540.127 190.156C540.222 188.848 539.998 187.536 539.476 186.332C538.404 183.931 536.736 181.845 534.629 180.271C530.895 177.317 526.489 175.333 521.802 174.496C517.116 173.658 512.295 173.993 507.769 175.47C504.665 176.398 501.884 178.182 499.747 180.617C497.719 183.118 493.815 185.346 494.854 188.394L493.959 188.816Z" fill="#2F2E41"/>
<path d="M519.329 171.555C512.584 164.715 504.42 159.436 495.414 156.09C489.633 153.949 483.34 152.625 477.296 153.842C471.252 155.058 465.537 159.239 463.85 165.169C462.472 170.018 463.895 175.239 466.035 179.804C468.175 184.368 471.031 188.601 472.762 193.336C474.527 198.168 475.058 203.363 474.307 208.452C473.555 213.541 471.544 218.361 468.457 222.475C465.369 226.59 461.303 229.868 456.628 232.012C451.952 234.157 446.815 235.099 441.683 234.755C447.621 235.551 453.095 238.342 458.9 239.827C464.704 241.313 471.555 241.212 475.869 237.053C480.433 232.654 480.524 225.5 480.304 219.165L479.32 190.911C479.152 186.108 479.009 181.151 480.742 176.668C482.474 172.185 486.59 168.259 491.396 168.3C495.038 168.331 498.262 170.537 501.183 172.713C504.104 174.889 507.195 177.211 510.823 177.535C514.451 177.858 518.594 175.174 518.322 171.541" fill="#2F2E41"/>
<path d="M419.91 244.778L469.158 245.941L476.293 298.587L430.812 299.608L419.91 244.778Z" fill="#E6E6E6"/>
<path d="M472.278 258.789C472.567 259.175 472.824 259.583 473.049 260.009L515.998 264.534L522.181 256.058L536.193 263.716L524.05 284.286L471.376 270.856C470.047 272.152 468.355 273.012 466.525 273.323C464.695 273.633 462.814 273.38 461.132 272.595C459.45 271.811 458.047 270.533 457.109 268.931C456.171 267.33 455.742 265.481 455.881 263.63C456.019 261.779 456.718 260.014 457.884 258.57C459.049 257.126 460.627 256.071 462.407 255.546C464.187 255.02 466.085 255.049 467.848 255.628C469.612 256.208 471.157 257.31 472.278 258.789Z" fill="#FFB8B8"/>
<path d="M531.051 271.53C530.516 271.529 529.987 271.418 529.496 271.205L518.307 266.362C517.355 265.948 516.605 265.173 516.222 264.207C515.84 263.241 515.856 262.163 516.268 261.209L524.917 241.23C525.438 240.022 526.193 238.929 527.137 238.013C528.082 237.096 529.197 236.375 530.421 235.89C531.644 235.406 532.951 235.167 534.266 235.187C535.582 235.208 536.881 235.487 538.088 236.01C539.296 236.533 540.388 237.288 541.304 238.233C542.219 239.178 542.939 240.295 543.423 241.518C543.907 242.742 544.145 244.049 544.123 245.365C544.102 246.68 543.821 247.979 543.297 249.186L534.649 269.165C534.344 269.866 533.842 270.464 533.203 270.884C532.564 271.304 531.816 271.528 531.051 271.53Z" fill="#8C28BB"/>
<path d="M429.813 271.247H83.2243C81.7231 271.247 80.2834 271.843 79.2219 272.905C78.1603 273.967 77.564 275.406 77.564 276.908C77.564 278.409 78.1603 279.848 79.2219 280.91C80.2834 281.972 81.7231 282.568 83.2243 282.568H93.2388V405.79C93.2388 407.291 93.8352 408.731 94.8967 409.792C95.9583 410.854 97.398 411.45 98.8992 411.45C100.4 411.45 101.84 410.854 102.902 409.792C103.963 408.731 104.56 407.291 104.56 405.79V293.445L168.018 408.462C168.77 409.758 170.006 410.704 171.455 411.09C172.903 411.477 174.446 411.273 175.744 410.524C177.043 409.774 177.991 408.54 178.38 407.092C178.77 405.644 178.569 404.101 177.822 402.801L111.486 282.568H414.574V282.641L348.279 402.801C347.528 404.101 347.325 405.646 347.713 407.096C348.102 408.546 349.05 409.783 350.351 410.533C351.651 411.284 353.196 411.487 354.646 411.099C356.096 410.71 357.332 409.762 358.083 408.462L414.574 306.071V405.79C414.574 407.291 415.17 408.731 416.232 409.792C417.293 410.854 418.733 411.45 420.234 411.45C421.736 411.45 423.175 410.854 424.237 409.792C425.298 408.731 425.895 407.291 425.895 405.79V285.553L427.542 282.568H429.813C431.315 282.568 432.754 281.972 433.816 280.91C434.877 279.848 435.474 278.409 435.474 276.908C435.474 275.406 434.877 273.967 433.816 272.905C432.754 271.843 431.315 271.247 429.813 271.247Z" fill="#3F3D56"/>
<path d="M643.963 412.727H1.03657C0.762089 412.726 0.499132 412.617 0.305328 412.422C0.111524 412.228 0.00268555 411.965 0.00268555 411.69C0.00268555 411.416 0.111524 411.152 0.305328 410.958C0.499132 410.764 0.762089 410.654 1.03657 410.653H643.963C644.238 410.653 644.502 410.763 644.696 410.957C644.891 411.151 645 411.415 645 411.69C645 411.965 644.891 412.229 644.696 412.423C644.502 412.618 644.238 412.727 643.963 412.727Z" fill="#3F3D56"/>
</g>
<defs>
<clipPath id="clip0_3_110">
<rect width="645" height="412.727" fill="white"/>
</clipPath>
</defs>
</svg>
